<svg width="390" height="92" viewBox="0 0 390 92" xmlns="http://www.w3.org/2000/svg" role="img" aria-label="CareSphere UK">
  <g transform="translate(8 10)"><defs><linearGradient id="d" x1="8" y1="5" x2="64" y2="68" gradientUnits="userSpaceOnUse"><stop stop-color="#69E6C2"/><stop offset=".52" stop-color="#16B68E"/><stop offset="1" stop-color="#087664"/></linearGradient></defs><circle cx="36" cy="36" r="33" fill="url(#d)"/><path d="M36 32.8 24.9 22.2c-6.7-6.4-16.1 3.9-9.3 10.3L36 51.7l20.4-19.2c6.8-6.4-2.6-16.7-9.3-10.3L36 32.8Z" fill="#fff"/><path d="M5.3 40.2c5.8-3.9 11.9-4.1 17.4-.8l10.7 6.4c1.7 1 2.3 3.2 1.3 4.9-1 1.7-3.2 2.3-4.9 1.3l-8.2-4.8c4.7 5.6 10.3 9.4 16.8 11.3C25.5 64.6 11.1 57.2 5.3 40.2Z" fill="#07584E"/><path d="M66.7 40.2c-5.8-3.9-11.9-4.1-17.4-.8l-10.7 6.4c-1.7 1-2.3 3.2-1.3 4.9 1 1.7 3.2 2.3 4.9 1.3l8.2-4.8c-4.7 5.6-10.3 9.4-16.8 11.3 12.9 6.1 27.3-1.3 33.1-18.3Z" fill="#07584E"/></g>
  <text x="92" y="47" fill="#092F2B" font-family="Inter,Arial,sans-serif" font-size="31" font-weight="800" letter-spacing="-1">CareSphere <tspan fill="#087664">UK</tspan></text>
  <text x="94" y="68" fill="#667B77" font-family="Inter,Arial,sans-serif" font-size="10" font-weight="700" letter-spacing="2.6">CARE WITH CONFIDENCE</text>
</svg>